<svg width="523" height="283" viewBox="0 0 523 283" fill="none" xmlns="http://www.w3.org/2000/svg">
<path d="M277.793 276.316L516.785 36.1622C520.774 32.1551 523 26.8314 523 21.2952C523 15.7591 520.774 10.4355 516.785 6.42838L516.515 6.1698C514.58 4.22051 512.252 2.66834 509.672 1.60768C507.091 0.547011 504.313 3.65894e-05 501.504 3.63439e-05C498.696 3.60984e-05 495.917 0.54701 493.337 1.60768C490.757 2.66834 488.428 4.22051 486.494 6.1698L261.455 232.319L36.5057 6.16976C34.5716 4.22047 32.2435 2.6683 29.6631 1.60764C27.0826 0.546969 24.3038 -5.37434e-06 21.4956 -5.61984e-06C18.6874 -5.86534e-06 15.9086 0.546968 13.3282 1.60763C10.7478 2.6683 8.41965 4.22047 6.48551 6.16976L6.21544 6.42834C2.22573 10.4354 4.35242e-05 15.7591 4.30403e-05 21.2952C4.25563e-05 26.8313 2.22573 32.155 6.21544 36.1621L245.207 276.316C247.309 278.428 249.837 280.11 252.637 281.259C255.438 282.408 258.453 283 261.5 283C264.547 283 267.562 282.408 270.363 281.259C273.163 280.11 275.691 278.428 277.793 276.316Z" fill="white"/>
</svg>
