<svg width="200" height="151" viewBox="0 0 200 151" fill="none" xmlns="http://www.w3.org/2000/svg">
<path d="M194.746 25.6066C200.604 19.7487 200.604 10.2513 194.746 4.3934C188.888 -1.46447 179.39 -1.46447 173.533 4.3934L184.139 15L194.746 25.6066ZM59.5326 118.393L48.926 129L70.1392 150.213L80.7458 139.607L70.1392 129L59.5326 118.393ZM184.139 15L173.533 4.3934L59.5326 118.393L70.1392 129L80.7458 139.607L194.746 25.6066L184.139 15Z" fill="white"/>
<path d="M25.6066 63.2381C19.7487 57.3803 10.2513 57.3803 4.3934 63.2381C-1.46447 69.096 -1.46447 78.5935 4.3934 84.4513L15 73.8447L25.6066 63.2381ZM53.2505 133.308L63.8571 143.915L85.0703 122.702L74.4637 112.095L63.8571 122.702L53.2505 133.308ZM15 73.8447L4.3934 84.4513L53.2505 133.308L63.8571 122.702L74.4637 112.095L25.6066 63.2381L15 73.8447Z" fill="white"/>
</svg>
