<svg width="273" height="181" viewBox="0 0 273 181" fill="none" xmlns="http://www.w3.org/2000/svg">
<path d="M39 0.5H182C185.316 0.5 188.496 1.80993 190.84 4.14062C193.184 6.47111 194.5 9.63124 194.5 12.9258V39.2783H233.75L272.5 90.6514V154.615H245.941L245.86 155.015C244.392 162.206 240.467 168.673 234.752 173.317C229.037 177.962 221.882 180.5 214.5 180.5C207.118 180.5 199.963 177.962 194.248 173.317C188.533 168.673 184.608 162.206 183.14 155.015L183.059 154.615H89.9424L89.8604 155.015C88.3852 162.2 84.4587 168.659 78.7441 173.298C73.0295 177.936 65.8777 180.469 58.5 180.468L57.8086 180.46C50.6764 180.308 43.7918 177.791 38.2559 173.298C32.5413 168.659 28.6148 162.2 27.1396 155.015L27.0576 154.615H0.5V38.7783L0.511719 37.8281C0.756486 28.0214 4.78132 18.6674 11.7754 11.7129C18.9953 4.53391 28.7883 0.5 39 0.5ZM58.5 128.763C53.1966 128.763 48.1093 130.857 44.3584 134.587C40.6075 138.317 38.5 143.377 38.5 148.652C38.5001 153.928 40.6076 158.987 44.3584 162.717C48.1093 166.446 53.1966 168.541 58.5 168.541C63.8034 168.541 68.8907 166.446 72.6416 162.717C76.3924 158.987 78.4999 153.928 78.5 148.652C78.5 143.377 76.3925 138.317 72.6416 134.587C68.8907 130.857 63.8034 128.763 58.5 128.763ZM214.5 128.763C209.197 128.763 204.109 130.857 200.358 134.587C196.607 138.317 194.5 143.377 194.5 148.652C194.5 153.928 196.608 158.987 200.358 162.717C204.109 166.446 209.197 168.541 214.5 168.541C219.803 168.541 224.891 166.446 228.642 162.717C232.392 158.987 234.5 153.928 234.5 148.652C234.5 143.377 232.393 138.317 228.642 134.587C224.891 130.857 219.803 128.763 214.5 128.763ZM39 12.4258C31.9727 12.4258 25.2326 15.2019 20.2627 20.1436C15.2928 25.0853 12.5001 31.7884 12.5 38.7783V142.688H27.0576L27.1396 142.289C28.6148 135.104 32.5416 128.645 38.2559 124.007C43.7918 119.513 50.6764 116.995 57.8086 116.844L58.5 116.836C65.8777 116.834 73.0295 119.368 78.7441 124.007C84.4584 128.645 88.3852 135.104 89.8604 142.289L89.9424 142.688H182.5V12.4258H39ZM194.5 78.0576H248.004L247.399 77.2568L227.899 51.4043L227.749 51.2051H194.5V78.0576ZM260.5 94.4531L260.399 94.3193L257.279 90.1826L257.129 89.9834H194.5V123.786L195.296 123.202C200.676 119.253 207.334 116.836 214.5 116.836C221.878 116.834 229.03 119.368 234.744 124.007C240.458 128.645 244.385 135.104 245.86 142.289L245.942 142.688H260.5V94.4531Z" fill="#1495EA" stroke="black"/>
</svg>
