<svg width="26" height="26" viewBox="0 0 26 26" fill="none" xmlns="http://www.w3.org/2000/svg">
<path d="M13 18.3337C14.4145 18.3337 15.771 17.7718 16.7712 16.7716C17.7714 15.7714 18.3333 14.4148 18.3333 13.0003C18.3333 11.5858 17.7714 10.2293 16.7712 9.22909C15.771 8.2289 14.4145 7.66699 13 7.66699C11.5855 7.66699 10.229 8.2289 9.22877 9.22909C8.22857 10.2293 7.66667 11.5858 7.66667 13.0003C7.66667 14.4148 8.22857 15.7714 9.22877 16.7716C10.229 17.7718 11.5855 18.3337 13 18.3337Z" stroke="white" stroke-width="2" stroke-linecap="round" stroke-linejoin="round"/>
<path d="M1 18.3333V7.66667C1 5.89856 1.70238 4.20286 2.95262 2.95262C4.20286 1.70238 5.89856 1 7.66667 1H18.3333C20.1014 1 21.7971 1.70238 23.0474 2.95262C24.2976 4.20286 25 5.89856 25 7.66667V18.3333C25 20.1014 24.2976 21.7971 23.0474 23.0474C21.7971 24.2976 20.1014 25 18.3333 25H7.66667C5.89856 25 4.20286 24.2976 2.95262 23.0474C1.70238 21.7971 1 20.1014 1 18.3333Z" stroke="white" stroke-width="2"/>
<path d="M20.3333 5.67967L20.3467 5.66406" stroke="white" stroke-width="1.5" stroke-linecap="round" stroke-linejoin="round"/>
</svg>
