<svg width="22" height="22" viewBox="0 0 22 22" fill="none" xmlns="http://www.w3.org/2000/svg">
<path d="M10.6857 7.60571C11.8385 6.42777 13.3395 5.65714 15.0857 5.65714C16.9195 5.65714 18.6782 6.38561 19.9749 7.68229C21.2715 8.97897 22 10.7376 22 12.5714V22H19.4857V12.5714C19.4857 11.4045 19.0221 10.2853 18.197 9.46016C17.3718 8.635 16.2527 8.17143 15.0857 8.17143C13.9188 8.17143 12.7996 8.635 11.9744 9.46016C11.1493 10.2853 10.6857 11.4045 10.6857 12.5714V22H8.17143V6.28571H10.6857V7.60571ZM1.88571 3.77143C1.38559 3.77143 0.905953 3.57276 0.552313 3.21912C0.198673 2.86548 0 2.38584 0 1.88571C0 1.38559 0.198673 0.905953 0.552313 0.552313C0.905953 0.198673 1.38559 0 1.88571 0C2.38584 0 2.86548 0.198673 3.21912 0.552313C3.57276 0.905953 3.77143 1.38559 3.77143 1.88571C3.77143 2.38584 3.57276 2.86548 3.21912 3.21912C2.86548 3.57276 2.38584 3.77143 1.88571 3.77143ZM0.628571 6.28571H3.14286V22H0.628571V6.28571Z" fill="white"/>
</svg>
