<svg width="1909" height="730" viewBox="0 0 1909 730" fill="none" xmlns="http://www.w3.org/2000/svg">
<g clip-path="url(#clip0_998_956)">
<path d="M1400.07 198.565C1373.44 203.864 1312.88 210.323 1283.31 214.828C1276.97 215.698 1272.59 216.187 1270.34 216.89C1268.72 217.409 1268.13 218.081 1268.28 219.256C1279.12 242.376 1385.98 402.459 1390.29 412.003C1390.55 412.706 1354.22 381.874 1353.56 381.416C1351.36 379.721 1342.51 371.459 1329.78 359.945C1290.09 323.845 1245.15 282.981 1205.02 246.484C1197.04 239.124 1198.41 239.948 1187.57 248.164C1144.38 280.904 1083.68 330.58 1043.52 359.273C1046.35 351.073 1128.54 219.241 1135.64 198.855C1116.85 188.853 1080.1 179.553 1058.82 171.184C1033.93 162.465 1031.78 164.068 1058.06 156.906C1077.92 151.393 1110.65 142.338 1130.28 136.902C1138.69 133.634 1148.2 134.962 1146.7 126.411C1142.36 108.651 1115.86 13.3923 1113.11 1.60329C1112.69 -0.88583 1113.61 -0.183378 1115.22 1.29788C1128.98 14.4154 1198.87 92.2654 1216.36 106.696C1224.25 107.383 1228.9 102.436 1239.25 98.3431C1252.4 92.1279 1270.08 83.7901 1282.87 77.7582C1299.96 70.2298 1305.85 64.0604 1296.7 84.3399C1291.21 97.6712 1280.65 121.6 1275.55 134.825C1274.5 137.879 1274.21 139.864 1274.92 141.361C1292.8 154.127 1384.85 188.44 1400.11 198.366L1400.07 198.519V198.565Z" fill="#F5F5F5"/>
<path d="M215.698 729.999V662.549H0.00195312V729.999H215.698Z" fill="#F5F5F5"/>
<path d="M215.698 275.223V209.682H0.00195312V275.223H215.698Z" fill="#F5F5F5"/>
<path d="M153.546 597.604C151.893 568.483 149.992 545.164 147.825 527.664C162.072 534.505 174.76 539.254 185.889 541.912C197.018 544.584 206.792 545.912 215.178 545.912C226.244 545.912 235.051 544.172 241.613 540.69C248.16 537.208 251.449 532.047 251.449 525.205C251.449 522.884 251.137 520.655 250.498 518.547C249.859 516.44 248.659 514.043 246.866 511.37C245.089 508.698 242.533 505.796 239.229 502.651L203.347 469.009C194.945 461.359 189.1 455.815 185.78 452.395C179.031 445.416 173.778 438.926 170.037 432.909C166.28 426.893 163.537 420.769 161.822 414.554C160.108 408.339 159.251 401.742 159.251 394.763C159.251 386.425 160.607 378.256 163.35 370.254C166.078 362.252 170.177 354.769 175.633 347.791C181.088 340.812 188.336 334.795 197.346 329.741C206.355 324.686 216.019 321.235 226.291 319.387C236.563 317.539 247.178 316.623 258.105 316.623C279.568 316.623 302.934 319.295 328.201 324.625C328.575 334.062 329.027 342.705 329.541 350.57C330.04 358.434 331.256 372.208 333.157 391.892C321.467 386.838 310.805 383.31 301.157 381.325C291.508 379.34 283.185 378.347 276.202 378.347C266.304 378.347 258.074 380.332 251.527 384.287C244.98 388.258 241.723 393.175 241.723 399.054C241.723 401.788 242.221 404.46 243.25 407.056C244.263 409.652 246.165 412.691 248.971 416.188C251.761 419.67 255.439 423.503 260.022 427.672C264.589 431.84 271.759 438.025 281.548 446.225L295.265 457.923C299.333 461.481 303.713 465.787 308.405 470.842C313.097 475.896 317.165 480.89 320.594 485.807C324.023 490.724 326.657 495.244 328.497 499.337C330.336 503.445 331.708 507.568 332.596 511.752C333.485 515.921 333.937 520.395 333.937 525.19C333.937 537.498 331.209 549.226 325.753 560.359C320.298 571.506 312.551 580.669 302.513 587.846C292.475 595.023 281.47 600.047 269.468 602.918C257.466 605.789 244.793 607.224 231.466 607.224C210.891 607.224 184.923 604.017 153.561 597.588L153.546 597.604Z" fill="#F5F5F5"/>
<path d="M586.86 533.618C585.332 541.666 583.493 552.875 581.342 567.26C579.175 581.645 577.726 592.777 576.962 600.687C549.793 605.07 525.524 607.254 504.201 607.254C482.877 607.254 464.485 604.49 446.777 598.946C429.07 593.403 412.813 584.317 398.021 571.673C383.228 559.029 372.66 544.155 366.301 527.067C359.941 509.979 356.777 490.83 356.777 469.649C356.777 444.896 361.063 422.646 369.636 402.886C378.209 383.126 390.523 366.649 406.594 353.455C422.664 340.261 440.278 330.824 459.45 325.158C478.622 319.477 498.434 316.652 518.884 316.652C537.682 316.652 560.907 319.248 588.606 324.44L588.98 341.666C589.229 349.179 589.619 357.456 590.118 366.481L591.458 389.86C576.604 386.027 564.57 383.431 555.358 382.072C546.146 380.698 537.604 380.026 529.733 380.026C512.587 380.026 497.155 383.721 483.439 391.097C469.722 398.473 458.935 409.208 451.064 423.303C443.192 437.382 439.249 452.974 439.249 470.062C439.249 485.653 442.553 499.015 449.147 510.162C455.74 521.31 464.672 529.923 475.91 536C487.148 542.078 501.021 545.132 517.528 545.132C526.537 545.132 536.357 544.354 546.957 542.781C557.556 541.208 570.867 538.169 586.86 533.649V533.618Z" fill="#F5F5F5"/>
<path d="M613.299 601.91C616.478 566.634 618.801 537.101 620.266 513.309C621.731 489.517 623.197 457.907 624.662 418.448C626.127 379.003 626.86 352.86 626.86 340.002L626.673 321.952C656.631 322.227 692.887 322.364 735.425 322.364C774.658 322.364 809.261 322.227 839.22 321.952L838.846 328.702C838.721 330.336 838.394 336.261 837.895 346.477L836.757 368.757C836.508 373.537 836.383 378.362 836.383 383.279C811.88 382.18 791.305 381.645 774.673 381.645C756.39 381.645 744.029 381.676 737.622 381.752C731.216 381.813 721.209 382.134 707.617 382.668L705.31 429.84C720.305 430.252 737.763 430.45 757.699 430.45C764.807 430.45 783.745 429.977 814.483 429.015C813.221 446.515 812.005 467.36 810.867 491.564C788.905 491.289 772.024 491.151 760.224 491.151C742.704 491.151 723.095 491.625 701.398 492.587L699.138 542.43H721.022C727.491 542.43 740.88 542.232 761.19 541.82L800.595 540.796C806.425 540.659 816.198 540.109 829.915 539.162C828.387 559.396 827.124 580.317 826.111 601.925C795.124 601.65 761.159 601.513 724.202 601.513L640.389 601.711L613.345 601.91H613.299Z" fill="#F5F5F5"/>
<path d="M861.083 601.909L864.886 558.846L872.322 412.827L874.41 353.959V321.967C894.128 322.242 911.555 322.379 926.69 322.379C937.507 322.379 952.689 322.242 972.282 321.967L1053.6 481.179L1064.81 504.558C1066.24 481.576 1067.71 449.37 1069.2 407.926C1070.7 366.481 1070.23 400.55 1070.23 384.668C1090.75 370.146 1124.54 342.735 1143.68 329.037L1141.65 383.08L1133.08 552.89L1131.94 601.909C1115.42 601.634 1099.99 601.497 1085.62 601.497C1073.68 601.497 1057.15 601.634 1036.05 601.909C1029.46 588.517 1024.58 578.789 1021.4 572.773L989.444 514.301C978.923 495.152 969.212 476.827 960.343 459.311C954.513 448.225 948.481 436.054 942.277 422.799L938.178 520.043L936.229 601.909C920.502 601.634 908.515 601.497 900.269 601.497C893.286 601.497 880.224 601.634 861.083 601.909Z" fill="#F5F5F5"/>
<path d="M1180.92 601.909C1180.92 492.678 1181.25 364.862 1181.25 305.658L1200.01 289.059C1205.55 293.533 1225.22 311.644 1259.1 341.819C1256.81 372.589 1259.87 483.409 1259.1 516.714C1258.34 550.004 1257.97 578.408 1257.97 601.924L1218.94 601.512C1211.31 601.512 1204.53 601.65 1180.93 601.924L1180.92 601.909Z" fill="#F5F5F5"/>
<path d="M1483.31 321.952C1482.67 321.952 1481.98 332.855 1481.22 354.677C1480.33 377.14 1479.05 401.894 1477.4 428.923C1475.5 460.671 1473.97 481.027 1472.83 489.976C1471.82 498.771 1470.29 505.933 1468.27 511.477C1466.24 517.341 1463.89 522.227 1461.22 526.121C1459.07 529.374 1456.53 532.23 1453.62 534.673C1450.31 537.269 1446.57 539.315 1442.39 540.781C1437.06 542.568 1431.36 543.469 1425.26 543.469C1418.15 543.469 1411.34 542.232 1404.8 539.773C1398.27 537.315 1393.15 533.65 1389.47 528.794C1385.8 523.938 1383.25 518.028 1381.87 511.049C1380.48 504.07 1379.78 495.397 1379.78 484.997C1379.78 479.53 1381.12 459.388 1381.7 449.676C1375.96 445.874 1295.5 373.934 1295.5 373.934C1294.73 390.609 1296.28 513.905 1296.28 517.188C1296.28 526.9 1297.42 535.986 1299.71 544.461C1301.73 551.975 1304.54 558.449 1308.09 563.84C1311.65 569.246 1316.73 574.545 1323.34 579.737C1330.57 585.341 1339.1 590.228 1348.87 594.396C1358.64 598.565 1369.63 601.742 1381.84 603.941C1395.04 606.124 1408.76 607.224 1422.99 607.224C1438.85 607.224 1454.55 605.788 1470.04 602.918C1485.54 600.047 1499.38 595.16 1511.58 588.258C1523.77 581.355 1533.05 573.598 1539.41 564.985C1545.77 556.373 1550.3 546.217 1553.03 534.535C1555.76 522.838 1557.38 502.788 1557.89 474.338C1557.89 472.567 1557.96 470.307 1558.08 467.573L1567.34 321.952H1483.34H1483.31Z" fill="#F5F5F5"/>
<path d="M1584.04 601.91L1588.76 560.48L1600.47 416.707L1606.33 321.952C1629.77 322.227 1648.19 322.364 1661.57 322.364C1672.65 322.364 1689.61 322.227 1712.41 321.952C1714.07 333.711 1715.45 342.629 1716.59 348.722C1717.73 354.799 1720.55 366.695 1725.04 384.409C1729.53 402.108 1733.14 417.424 1735.87 430.343C1738.6 443.262 1742.68 465.374 1748.12 496.695C1753.72 475.224 1758.82 456.777 1763.38 441.323C1767.97 425.869 1773.69 408.308 1780.56 388.609C1787.43 368.925 1791.78 356.036 1793.64 349.943C1795.48 343.866 1798 334.52 1801.18 321.952C1820.23 322.227 1838.9 322.364 1857.19 322.364C1869.63 322.364 1886.9 322.227 1909 321.952C1906.58 368.024 1904.99 407.605 1904.23 440.697C1902.58 505.506 1901.75 550.081 1901.75 574.422C1901.75 579.477 1901.88 588.639 1902.13 601.91C1885.37 601.635 1873.62 601.497 1866.88 601.497C1857.11 601.497 1845.11 601.635 1830.88 601.91C1831.9 589.601 1833.2 560.312 1834.74 514.027C1836.28 467.741 1837.06 438.177 1837.06 425.319C1837.06 419.715 1836.94 411.927 1836.69 401.94L1811.7 485.41L1775.84 601.894C1759.33 601.62 1747.97 601.482 1741.75 601.482C1733.88 601.482 1721.81 601.62 1705.55 601.894L1682.06 489.09L1668.32 429C1667.8 426.679 1667.24 423.808 1666.6 420.387C1665.96 416.966 1664.95 410.95 1663.55 402.337L1658.75 459.144L1652.42 575.629L1651.84 601.879C1634.32 601.604 1623.15 601.467 1618.31 601.467C1611.7 601.467 1600.28 601.604 1584.02 601.879L1584.04 601.91Z" fill="#F5F5F5"/>
<path d="M78.2947 218.31H0V705.567H78.2947V218.31Z" fill="#F5F5F5"/>
<path d="M1259.11 424.159H1181.25V672.903H1259.11V424.159Z" fill="#F5F5F5"/>
<path d="M1259.13 729.999V662.549H1043.43V729.999H1259.13Z" fill="#F5F5F5"/>
</g>
<defs>
<clipPath id="clip0_998_956">
<rect width="1909" height="730" fill="white"/>
</clipPath>
</defs>
</svg>
