<svg width="262" height="262" viewBox="0 0 262 262" fill="none" xmlns="http://www.w3.org/2000/svg">
<path d="M113.806 154.416L84.495 125.105C82.9012 123.511 81.0235 122.665 78.862 122.567C76.6896 122.458 74.7027 123.309 72.9015 125.121C71.1002 126.923 70.1996 128.866 70.1996 130.951C70.1996 133.047 71.1002 134.996 72.9015 136.797L104.554 168.531C107.196 171.184 110.28 172.511 113.806 172.511C117.332 172.511 120.422 171.184 123.074 168.531L189.197 102.409C190.791 100.815 191.642 98.9214 191.751 96.7271C191.86 94.5329 191.009 92.5351 189.197 90.7339C187.385 88.9326 185.436 88.0265 183.351 88.0156C181.266 88.0047 179.323 88.9108 177.521 90.7339L113.806 154.416ZM131 262C112.835 262 95.8156 258.583 79.9427 251.749C64.0699 244.915 50.1948 235.56 38.3175 223.682C26.4402 211.805 17.0846 197.93 10.2507 182.057C3.41692 166.184 0 149.165 0 131C0 112.835 3.41692 95.8156 10.2507 79.9427C17.0846 64.0699 26.4402 50.1948 38.3175 38.3175C50.1948 26.4402 64.0699 17.0846 79.9427 10.2507C95.8156 3.41692 112.835 0 131 0C149.165 0 166.184 3.41692 182.057 10.2507C197.93 17.0846 211.805 26.4402 223.682 38.3175C235.56 50.1948 244.915 64.0699 251.749 79.9427C258.583 95.8156 262 112.835 262 131C262 149.165 258.583 166.184 251.749 182.057C244.915 197.93 235.56 211.811 223.682 223.699C211.805 235.587 197.93 244.937 182.057 251.749C166.184 258.561 149.165 261.978 131 262ZM131 245.625C162.724 245.625 189.759 234.452 212.105 212.105C234.452 189.759 245.625 162.724 245.625 131C245.625 99.2762 234.452 72.241 212.105 49.8946C189.759 27.5482 162.724 16.375 131 16.375C99.2762 16.375 72.241 27.5482 49.8946 49.8946C27.5482 72.241 16.375 99.2762 16.375 131C16.375 162.724 27.5482 189.759 49.8946 212.105C72.241 234.452 99.2762 245.625 131 245.625Z" fill="#1495EA"/>
</svg>
