<svg width="262" height="223" viewBox="0 0 262 223" fill="none" xmlns="http://www.w3.org/2000/svg">
<path d="M46.2353 53.6852C46.2353 43.828 49.8887 34.3745 56.3918 27.4044C62.8949 20.4343 71.715 16.5185 80.9118 16.5185C90.1085 16.5185 98.9286 20.4343 105.432 27.4044C111.935 34.3745 115.588 43.828 115.588 53.6852C115.588 63.5424 111.935 72.9959 105.432 79.966C98.9286 86.9361 90.1085 90.8518 80.9118 90.8518C71.715 90.8518 62.8949 86.9361 56.3918 79.966C49.8887 72.9959 46.2353 63.5424 46.2353 53.6852ZM80.9118 0C67.6275 0 54.8874 5.6561 45.494 15.724C36.1007 25.792 30.8235 39.447 30.8235 53.6852C30.8235 67.9234 36.1007 81.5784 45.494 91.6463C54.8874 101.714 67.6275 107.37 80.9118 107.37C94.196 107.37 106.936 101.714 116.329 91.6463C125.723 81.5784 131 67.9234 131 53.6852C131 39.447 125.723 25.792 116.329 15.724C106.936 5.6561 94.196 0 80.9118 0ZM168.558 192.358C176.85 195.992 187.284 198.222 200.353 198.222C229.342 198.222 245.371 187.188 253.816 174.535C258.232 167.9 260.996 160.168 261.846 152.069C261.921 151.317 261.973 150.562 262 149.806V148.667C262 145.413 261.402 142.191 260.24 139.185C259.079 136.178 257.376 133.447 255.229 131.146C253.082 128.845 250.534 127.02 247.729 125.775C244.924 124.53 241.918 123.889 238.882 123.889H167.526C171.225 128.679 173.999 134.279 175.617 140.407H238.882C240.926 140.407 242.886 141.278 244.331 142.826C245.776 144.375 246.588 146.476 246.588 148.667V149.559L246.511 150.385C245.932 155.625 244.13 160.625 241.271 164.921C236.232 172.503 225.289 181.704 200.353 181.704C189.072 181.704 180.657 179.821 174.353 177.062C173.09 181.687 171.256 186.907 168.558 192.358ZM0 156.926C0 148.164 3.24747 139.761 9.028 133.565C14.8085 127.37 22.6486 123.889 30.8235 123.889H131C139.175 123.889 147.015 127.37 152.796 133.565C158.576 139.761 161.824 148.164 161.824 156.926V158.313L161.793 158.974L161.639 161.204C160.546 171.909 156.999 182.158 151.313 191.037C140.509 207.803 119.642 223 80.9118 223C42.182 223 21.3145 207.803 10.5108 191.053C4.82232 182.17 1.27477 171.915 0.184941 161.204C0.0970181 160.243 0.0353453 159.279 0 158.313V156.926ZM15.4118 157.917V158.214L15.5196 159.585C16.356 167.504 18.9913 175.081 23.1947 181.654C30.7002 193.283 46.4357 206.481 80.9118 206.481C115.388 206.481 131.123 193.283 138.629 181.654C142.832 175.081 145.468 167.504 146.304 159.585C146.366 158.958 146.396 158.501 146.396 158.214L146.412 157.934V156.926C146.412 152.545 144.788 148.343 141.898 145.246C139.007 142.148 135.087 140.407 131 140.407H30.8235C26.7361 140.407 22.816 142.148 19.9258 145.246C17.0355 148.343 15.4118 152.545 15.4118 156.926V157.917ZM177.235 66.0741C177.235 59.5026 179.671 53.2003 184.006 48.5535C188.342 43.9068 194.222 41.2963 200.353 41.2963C206.484 41.2963 212.364 43.9068 216.7 48.5535C221.035 53.2003 223.471 59.5026 223.471 66.0741C223.471 72.6456 221.035 78.9479 216.7 83.5946C212.364 88.2414 206.484 90.8518 200.353 90.8518C194.222 90.8518 188.342 88.2414 184.006 83.5946C179.671 78.9479 177.235 72.6456 177.235 66.0741ZM200.353 24.7778C190.134 24.7778 180.334 29.1286 173.109 36.8732C165.883 44.6177 161.824 55.1216 161.824 66.0741C161.824 77.0265 165.883 87.5304 173.109 95.275C180.334 103.02 190.134 107.37 200.353 107.37C210.572 107.37 220.372 103.02 227.597 95.275C234.823 87.5304 238.882 77.0265 238.882 66.0741C238.882 55.1216 234.823 44.6177 227.597 36.8732C220.372 29.1286 210.572 24.7778 200.353 24.7778Z" fill="#1495EA"/>
</svg>
