<svg width="24" height="28" viewBox="0 0 24 28" fill="none" xmlns="http://www.w3.org/2000/svg">
<path d="M16.707 0.75C16.8593 2.26915 17.4708 3.71112 18.4697 4.87207V4.87305C19.6309 6.2354 21.0159 6.87721 22.1016 7.17676C22.5417 7.29819 22.9355 7.36278 23.25 7.39844V10.7178C21.3139 10.5803 19.4466 9.90087 17.8604 8.74316L16.668 7.87305V19.1338C16.6677 23.6317 13.0885 27.25 8.70898 27.25C4.61745 27.2499 0.750248 23.8783 0.75 19.1338C0.75 14.4736 4.61219 10.7986 9.15332 11.0439V14.3604C6.40289 14.0875 3.99512 16.3121 3.99512 19.1338C3.99536 21.7801 6.12942 23.9277 8.72461 23.9277V23.9268C9.95059 23.9274 11.1263 23.4448 12.0049 22.583C12.8832 21.7214 13.3962 20.5492 13.4385 19.3145V0.75H16.707Z" stroke="white" stroke-width="1.5"/>
</svg>
