<svg width="242" height="222" viewBox="0 0 242 222" fill="none" xmlns="http://www.w3.org/2000/svg">
<path fill-rule="evenodd" clip-rule="evenodd" d="M31.1137 15.3501C33.614 10.7223 37.3816 6.84446 42.0068 4.1381C46.6319 1.43175 51.9377 0.000508631 57.3471 0H184.648C190.057 0.000508631 195.363 1.43175 199.988 4.1381C204.613 6.84446 208.381 10.7223 210.881 15.3501L238.64 66.6651C241.371 71.7107 242.476 77.4287 241.812 83.0846C241.149 88.7405 238.749 94.0759 234.919 98.4056L128.499 218.669C127.573 219.714 126.424 220.552 125.13 221.127C123.836 221.702 122.429 222 121.004 222C119.58 222 118.172 221.702 116.878 221.127C115.584 220.552 114.435 219.714 113.509 218.669L7.08944 98.4056C3.25739 94.0773 0.85426 88.7425 0.188802 83.0865C-0.476656 77.4306 0.625949 71.7119 3.35496 66.6651L31.1137 15.3501ZM57.3471 19.0291C55.5444 19.0288 53.7761 19.5053 52.2344 20.4066C50.6928 21.308 49.4366 22.5997 48.6026 24.1415L20.8439 75.4819C19.933 77.1634 19.564 79.0691 19.7843 80.9544C20.0045 82.8397 20.804 84.6184 22.0799 86.0621L121.004 197.851L219.915 86.0621C221.191 84.6184 221.99 82.8397 222.211 80.9544C222.431 79.0691 222.062 77.1634 221.151 75.4819L193.406 24.1542C192.57 22.6105 191.312 21.3175 189.768 20.416C188.224 19.5145 186.453 19.0392 184.648 19.0417L57.3471 19.0291Z" fill="#1495EA"/>
</svg>
